HIERARCHY
ROOT Hips
{
	OFFSET 0.000000 0.000000 0.000000
	CHANNELS 6 Xposition Yposition Zposition Zrotation Yrotation Xrotation 
	JOINT LowerBack
	{
		OFFSET 0.000000 0.000000 0.000000
		CHANNELS 3 Zrotation Yrotation Xrotation
		JOINT Spine
		{
			OFFSET 0.028270 2.035590 -0.193380
			CHANNELS 3 Zrotation Yrotation Xrotation
			JOINT Spine1
			{
				OFFSET 0.056720 2.048850 -0.042750
				CHANNELS 3 Zrotation Yrotation Xrotation
				JOINT Neck
				{
					OFFSET 0.000000 0.000000 0.000000
					CHANNELS 3 Zrotation Yrotation Xrotation
					JOINT Neck1
					{
						OFFSET -0.054170 1.746240 0.172020
						CHANNELS 3 Zrotation Yrotation Xrotation
						JOINT Head
						{
							OFFSET 0.104070 1.761360 -0.123970
							CHANNELS 3 Zrotation Yrotation Xrotation
							End Site
							{
								OFFSET 0.000000 0.000000 0.000000
							}
						}
					}
				}
				JOINT LeftShoulder
				{
					OFFSET 0.000000 0.000000 0.000000
					CHANNELS 3 Zrotation Yrotation Xrotation
					JOINT LeftArm
					{
						OFFSET 3.362410 1.200890 -0.311210
						CHANNELS 3 Zrotation Yrotation Xrotation
						JOINT LeftForeArm
						{
							OFFSET 4.983000 -0.000000 -0.000000
							CHANNELS 3 Zrotation Yrotation Xrotation
							JOINT LeftHand
							{
								OFFSET 3.483560 -0.000000 -0.000000
								CHANNELS 3 Zrotation Yrotation Xrotation
								JOINT LeftFingerBase
								{
									OFFSET 0.000000 0.000000 0.000000
									CHANNELS 3 Zrotation Yrotation Xrotation
									JOINT LeftHandIndex1
									{
										OFFSET 0.715260 -0.000000 -0.000000
										CHANNELS 3 Zrotation Yrotation Xrotation
										End Site
										{
											OFFSET 0.000000 0.000000 0.000000
										}
									}
								}
								JOINT LThumb
								{
									OFFSET 0.000000 0.000000 0.000000
									CHANNELS 3 Zrotation Yrotation Xrotation
									End Site
									{
										OFFSET 0.000000 0.000000 0.000000
									}
								}
							}
						}
					}
				}
				JOINT RightShoulder
				{
					OFFSET 0.000000 0.000000 0.000000
					CHANNELS 3 Zrotation Yrotation Xrotation
					JOINT RightArm
					{
						OFFSET -3.136600 1.374050 -0.404650
						CHANNELS 3 Zrotation Yrotation Xrotation
						JOINT RightForeArm
						{
							OFFSET -5.241900 -0.000000 -0.000000
							CHANNELS 3 Zrotation Yrotation Xrotation
							JOINT RightHand
							{
								OFFSET -3.444170 -0.000000 -0.000000
								CHANNELS 3 Zrotation Yrotation Xrotation
								JOINT RightFingerBase
								{
									OFFSET 0.000000 0.000000 0.000000
									CHANNELS 3 Zrotation Yrotation Xrotation
									JOINT RightHandIndex1
									{
										OFFSET -0.622530 -0.000000 -0.000000
										CHANNELS 3 Zrotation Yrotation Xrotation
										End Site
										{
											OFFSET 0.000000 0.000000 0.000000
										}
									}
								}
								JOINT RThumb
								{
									OFFSET 0.000000 0.000000 0.000000
									CHANNELS 3 Zrotation Yrotation Xrotation
									End Site
									{
										OFFSET 0.000000 0.000000 0.000000
									}
								}
							}
						}
					}
				}
			}
		}
	}
}
}
MOTION
Frames: 18
Frame Time: 0.008333
-9.735494 16.691599 -0.325674 6.722815 87.263737 26.260851 -7.220964 0.254053 1.250138 -2.146923 0.657360 -2.400026 -5.604907 0.618498 1.971141 8.025514 -4.448653 -5.780932 -2.965831 -0.239664 0.335106 0.000000 0.000000 0.000000 -8.388092 14.635562 1.818018 -58.538614 11.215065 4.137663 -4.597346 -22.718933 -0.019473 -8.097399 3.974029 -0.282405 -0.126393 -0.076149 -0.000000 0.000000 0.000000 0.000000 0.000000 0.000000 0.000000 11.941287 -0.724293 0.861031 40.442447 24.280157 12.912386 1.237862 63.920588 0.020294 5.410854 10.482422 0.514810 -0.040089 -0.289050 -0.000000 0.000000 0.000000 0.000000 0.000000 0.000000 0.000000 
-9.541517 16.706261 -0.335168 10.661239 87.270033 30.095516 -7.593440 0.148221 1.364416 -2.237139 0.571010 -2.386070 -5.694500 0.532997 1.939700 8.157707 -4.424483 -5.733860 -3.023382 -0.244036 0.341144 0.000000 0.000000 0.000000 -8.281455 14.395817 1.842703 -58.641052 10.713049 4.108242 -4.599238 -22.618483 -0.018950 -8.058440 3.981692 -0.281295 -0.125615 -0.073191 -0.000000 0.000000 0.000000 0.000000 0.000000 0.000000 0.000000 12.292760 -0.767534 0.822888 41.304437 23.741447 13.253815 1.269270 63.646976 0.020200 5.318807 10.546719 0.508729 -0.036434 -0.285816 -0.000000 0.000000 0.000000 0.000000 0.000000 0.000000 0.000000 
-9.350782 16.722795 -0.346764 13.274538 87.190668 32.584815 -7.903134 0.068402 1.490640 -2.315827 0.507009 -2.370955 -5.781784 0.469973 1.906016 8.255626 -4.386538 -5.677039 -3.080264 -0.248429 0.349922 0.000000 0.000000 0.000000 -8.189888 14.150624 1.863140 -58.740029 10.171444 4.147365 -4.596821 -22.562714 -0.018379 -8.014402 3.974040 -0.279082 -0.124656 -0.070254 -0.000000 0.000000 0.000000 0.000000 0.000000 0.000000 0.000000 12.605974 -0.790825 0.786707 42.177780 23.210501 13.612695 1.303593 63.282225 0.020107 5.238501 10.600272 0.503046 -0.032941 -0.282028 -0.000000 0.000000 0.000000 0.000000 0.000000 0.000000 0.000000 
-9.163149 16.741179 -0.360529 14.874519 87.051009 34.048802 -8.159472 0.006101 1.621464 -2.383201 0.457570 -2.354858 -5.864669 0.421507 1.873370 8.321673 -4.341675 -5.613745 -3.135357 -0.252722 0.360698 0.000000 0.000000 0.000000 -8.113744 13.907339 1.879351 -58.831250 9.583786 4.266508 -4.590291 -22.558526 -0.017743 -7.959033 3.946287 -0.274968 -0.123559 -0.067320 -0.000000 0.000000 0.000000 0.000000 0.000000 0.000000 0.000000 12.880976 -0.805796 0.751771 43.057228 22.696984 13.993849 1.340928 62.821040 0.020010 5.171922 10.633748 0.497762 -0.029624 -0.277522 -0.000000 0.000000 0.000000 0.000000 0.000000 0.000000 0.000000 
-8.978527 16.761515 -0.376293 15.735295 86.873061 34.767459 -8.365007 -0.045321 1.751800 -2.438912 0.416380 -2.338798 -5.942260 0.381132 1.840422 8.358235 -4.287203 -5.542886 -3.187610 -0.256859 0.373918 0.000000 0.000000 0.000000 -8.051972 13.658895 1.892708 -58.909835 8.964264 4.465461 -4.579825 -22.623612 -0.017043 -7.890171 3.896513 -0.269051 -0.122364 -0.064412 -0.000000 0.000000 0.000000 0.000000 0.000000 0.000000 0.000000 13.114100 -0.812321 0.717950 43.948459 22.190426 14.390666 1.381529 62.264906 0.019922 5.127890 10.636580 0.493176 -0.026565 -0.272159 -0.000000 0.000000 0.000000 0.000000 0.000000 0.000000 0.000000 
-8.796756 16.783979 -0.393528 16.206895 86.678236 35.093870 -8.528694 -0.093393 1.881053 -2.484638 0.376551 -2.321681 -6.014806 0.342045 1.810334 8.374789 -4.231267 -5.469287 -3.236765 -0.260760 0.388168 0.000000 0.000000 0.000000 -7.995720 13.413117 1.903944 -58.970937 8.303016 4.751539 -4.566015 -22.762366 -0.016273 -7.805761 3.822763 -0.260930 -0.121116 -0.061486 -0.000000 0.000000 0.000000 0.000000 0.000000 0.000000 0.000000 13.316881 -0.821666 0.685073 44.845460 21.697698 14.804072 1.425277 61.616542 0.019832 5.107108 10.600553 0.488988 -0.023765 -0.265860 -0.000000 0.000000 0.000000 0.000000 0.000000 0.000000 0.000000 
-8.617682 16.808743 -0.412216 16.281334 86.470793 35.025313 -8.646153 -0.138617 2.003683 -2.519345 0.337405 -2.305161 -6.082415 0.303461 1.780937 8.372817 -4.171995 -5.392752 -3.281917 -0.264377 0.403737 0.000000 0.000000 0.000000 -7.948872 13.164072 1.913760 -59.008184 7.617564 5.117328 -4.548866 -22.994966 -0.015448 -7.708149 3.725885 -0.251006 -0.119861 -0.058590 -0.000000 0.000000 0.000000 0.000000 0.000000 0.000000 0.000000 13.484927 -0.830627 0.653965 45.752590 21.207746 15.225980 1.472387 60.880937 0.019751 5.113577 10.519869 0.485397 -0.021220 -0.258620 -0.000000 0.000000 0.000000 0.000000 0.000000 0.000000 0.000000 
-8.441103 16.836008 -0.432040 16.063908 86.258393 34.670532 -8.719876 -0.183230 2.117913 -2.543702 0.296865 -2.289334 -6.145788 0.263341 1.752906 8.358627 -4.113626 -5.316521 -3.322888 -0.267663 0.419778 0.000000 0.000000 0.000000 -7.908587 12.914473 1.922803 -59.015634 6.908694 5.558916 -4.528859 -23.330003 -0.014581 -7.600393 3.606390 -0.239478 -0.118661 -0.055714 -0.000000 0.000000 0.000000 0.000000 0.000000 0.000000 0.000000 13.624753 -0.843200 0.625203 46.665300 20.719135 15.651988 1.522662 60.066159 0.019666 5.145146 10.392668 0.482004 -0.018882 -0.250500 0.000000 0.000000 0.000000 0.000000 0.000000 0.000000 0.000000 
-8.266952 16.865960 -0.452588 15.689750 86.048010 34.164914 -8.756715 -0.229395 2.225095 -2.559446 0.253095 -2.274048 -6.206062 0.219895 1.725496 8.339843 -4.057181 -5.242461 -3.359912 -0.270619 0.435717 0.000000 0.000000 0.000000 -7.868599 12.662629 1.932451 -58.988672 6.179705 6.067478 -4.506554 -23.775074 -0.013679 -7.486354 3.466303 -0.226547 -0.117576 -0.052832 -0.000000 0.000000 0.000000 0.000000 0.000000 0.000000 0.000000 13.745089 -0.859742 0.599489 47.579145 20.223201 16.072060 1.575610 59.186992 0.019571 5.201809 10.219524 0.478709 -0.016761 -0.241625 0.000000 0.000000 0.000000 0.000000 0.000000 0.000000 0.000000 
-8.095108 16.898604 -0.473746 15.154678 85.841820 33.506487 -8.756484 -0.276790 2.324223 -2.566744 0.206339 -2.259749 -6.263970 0.173386 1.698045 8.320086 -4.005009 -5.172419 -3.392970 -0.273230 0.451131 0.000000 0.000000 0.000000 -7.828591 12.407414 1.943319 -58.922951 5.436691 6.630868 -4.482153 -24.337289 -0.012755 -7.370680 3.307530 -0.212712 -0.116655 -0.049937 -0.000000 0.000000 0.000000 0.000000 0.000000 0.000000 0.000000 13.849341 -0.881099 0.577564 48.488613 19.714567 16.479652 1.630795 58.256072 0.019459 5.277840 10.006952 0.475212 -0.014779 -0.232179 0.000000 0.000000 0.000000 0.000000 0.000000 0.000000 0.000000 
-7.925442 16.933877 -0.495312 14.496735 85.643017 32.733234 -8.721269 -0.325408 2.416587 -2.566303 0.156628 -2.246576 -6.320414 0.123866 1.669318 8.303455 -3.956440 -5.107000 -3.422391 -0.275519 0.465846 0.000000 0.000000 0.000000 -7.785336 12.146519 1.956506 -58.815131 4.684250 7.236259 -4.455868 -25.020615 -0.011817 -7.257912 3.132699 -0.198272 -0.115940 -0.046999 -0.000000 0.000000 0.000000 0.000000 0.000000 0.000000 0.000000 13.942247 -0.905207 0.559888 49.387174 19.181804 16.863231 1.687443 57.292423 0.019316 5.371328 9.763238 0.471413 -0.012949 -0.222376 0.000000 0.000000 0.000000 0.000000 0.000000 0.000000 0.000000 
-7.757827 16.971520 -0.517373 13.679269 85.453116 31.810276 -8.647381 -0.374226 2.501324 -2.557444 0.104725 -2.234377 -6.375401 0.072189 1.640921 8.290883 -3.922270 -5.049663 -3.447971 -0.277445 0.479046 0.000000 0.000000 0.000000 -7.739700 11.880983 1.971375 -58.664361 3.923983 7.869890 -4.427372 -25.825392 -0.010864 -7.151353 2.943431 -0.183430 -0.115436 -0.043998 -0.000000 0.000000 0.000000 0.000000 0.000000 0.000000 0.000000 14.025768 -0.942267 0.547089 50.264903 18.635199 17.229138 1.745271 56.304220 0.019139 5.467759 9.504827 0.466713 -0.011080 -0.212471 0.000000 0.000000 0.000000 0.000000 0.000000 0.000000 0.000000 
-7.592244 17.011199 -0.539750 12.766099 85.276778 30.797954 -8.538487 -0.423559 2.582484 -2.541184 0.050426 -2.223102 -6.429801 0.018151 1.610187 8.285042 -3.893662 -4.997695 -3.470341 -0.279083 0.491354 0.000000 0.000000 0.000000 -7.685978 11.607243 1.989656 -58.470161 3.161495 8.519482 -4.396554 -26.750555 -0.009898 -7.053510 2.742984 -0.168482 -0.115150 -0.040876 -0.000000 0.000000 0.000000 0.000000 0.000000 0.000000 0.000000 14.102492 -0.982115 0.538785 51.116410 18.051133 17.557484 1.803025 55.318431 0.018928 5.573066 9.241609 0.462113 -0.009338 -0.202673 0.000000 0.000000 0.000000 0.000000 0.000000 0.000000 0.000000 
-7.428467 17.052361 -0.562608 11.712352 85.116056 29.653130 -8.389466 -0.472400 2.658811 -2.516458 -0.005553 -2.212625 -6.483231 -0.037463 1.578877 8.284411 -3.879341 -4.952963 -3.489252 -0.280405 0.502375 0.000000 0.000000 0.000000 -7.625592 11.326850 2.010378 -58.233759 2.397528 9.172869 -4.362658 -27.792242 -0.008915 -6.965547 2.533396 -0.153534 -0.115045 -0.037594 -0.000000 0.000000 0.000000 0.000000 0.000000 0.000000 0.000000 14.171077 -1.033367 0.534980 51.933158 17.438013 17.855367 1.860461 54.343211 0.018685 5.676476 8.991075 0.457513 -0.007592 -0.193193 0.000000 0.000000 0.000000 0.000000 0.000000 0.000000 0.000000 
-7.266387 17.094485 -0.585967 10.533600 84.974714 28.389168 -8.200076 -0.520928 2.732367 -2.483283 -0.063412 -2.202444 -6.535687 -0.094781 1.547392 8.288582 -3.880499 -4.914737 -3.504891 -0.281436 0.512269 0.000000 0.000000 0.000000 -7.555944 11.040164 2.033395 -57.956150 1.633935 9.820577 -4.324978 -28.945130 -0.007910 -6.887321 2.317719 -0.138781 -0.115082 -0.034100 -0.000000 0.000000 0.000000 0.000000 0.000000 0.000000 0.000000 14.231597 -1.097288 0.535144 52.708857 16.793339 18.120172 1.917078 53.391993 0.018423 5.777061 8.765778 0.453610 -0.005869 -0.184175 0.000000 0.000000 0.000000 0.000000 0.000000 0.000000 0.000000 
-7.105858 17.136941 -0.609846 9.224302 84.855939 26.999749 -7.968838 -0.569283 2.803764 -2.441362 -0.123346 -2.192299 -6.586949 -0.153952 1.516298 8.296033 -3.897714 -4.881972 -3.517316 -0.282197 0.521308 0.000000 0.000000 0.000000 -7.475925 10.748274 2.058317 -57.639264 0.872127 10.454471 -4.282656 -30.202359 -0.006878 -6.817779 2.099113 -0.124225 -0.115207 -0.030335 -0.000000 0.000000 0.000000 0.000000 0.000000 0.000000 0.000000 14.282248 -1.174635 0.538598 53.439458 16.115406 18.350769 1.972584 52.475462 0.018153 5.875780 8.575724 0.450908 -0.004203 -0.175715 0.000000 0.000000 0.000000 0.000000 0.000000 0.000000 0.000000 
-6.946674 17.179132 -0.634282 7.775343 84.762767 25.475301 -7.694965 -0.617927 2.872700 -2.390520 -0.185812 -2.181923 -6.636742 -0.215379 1.486754 8.305216 -3.933416 -4.853847 -3.526547 -0.282705 0.529711 0.000000 0.000000 0.000000 -7.384395 10.452433 2.084300 -57.284929 0.113219 11.066739 -4.234838 -31.555248 -0.005814 -6.755362 1.880533 -0.110067 -0.115358 -0.026243 -0.000000 0.000000 0.000000 0.000000 0.000000 0.000000 0.000000 14.321455 -1.268501 0.544619 54.122596 15.406621 18.548581 2.027035 51.598610 0.017887 5.973526 8.427882 0.450105 -0.002602 -0.167845 0.000000 0.000000 0.000000 0.000000 0.000000 0.000000 0.000000 
-6.788487 17.220545 -0.659198 6.188688 84.698472 23.821670 -7.379347 -0.668121 2.934620 -2.331175 -0.251987 -2.171843 -6.686354 -0.280232 1.460256 8.317417 -3.986573 -4.829520 -3.533741 -0.283058 0.537676 0.000000 0.000000 0.000000 -7.284778 10.158518 2.110601 -56.884083 -0.642768 11.664003 -4.180573 -33.001677 -0.004726 -6.696640 1.666384 -0.096507 -0.115509 -0.021818 -0.000000 0.000000 0.000000 0.000000 0.000000 0.000000 0.000000 14.355182 -1.378597 0.552244 54.753286 14.663940 18.705960 2.080640 50.773442 0.017644 6.085237 8.320814 0.452303 -0.001228 -0.160501 0.000000 0.000000 0.000000 0.000000 0.000000 0.000000 0.000000 
